<svg xmlns="http://www.w3.org/2000/svg" enable-background="new 0 0 64 64" viewBox="0 0 64 64" id="date">
  <rect width="6" height="6" x="29" y="29" fill="#f4b2b0"></rect>
  <rect width="6" height="6" x="40" y="29" fill="#f4b2b0"></rect>
  <rect width="6" height="6" x="51" y="29" fill="#f4b2b0"></rect>
  <rect width="6" height="6" x="29" y="40" fill="#f4b2b0"></rect>
  <rect width="6" height="6" x="40" y="40" fill="#f4b2b0"></rect>
  <rect width="6" height="6" x="51" y="40" fill="#f4b2b0"></rect>
  <rect width="6" height="6" x="7" y="40" fill="#f4b2b0"></rect>
  <rect width="6" height="6" x="18" y="40" fill="#f4b2b0"></rect>
  <rect width="6" height="6" x="29" y="51" fill="#f4b2b0"></rect>
  <rect width="6" height="6" x="40" y="51" fill="#f4b2b0"></rect>
  <rect width="6" height="6" x="51" y="51" fill="#f4b2b0"></rect>
  <rect width="6" height="6" x="7" y="51" fill="#f4b2b0"></rect>
  <rect width="6" height="6" x="18" y="51" fill="#f4b2b0"></rect>
  <path fill="#f4b2b0" d="M32,1.969c-8.284,0-15,6.716-15,15c0,8.284,6.716,15,15,15c8.284,0,15-6.716,15-15
		C47,8.685,40.284,1.969,32,1.969z M32,27.969c-6.075,0-11-4.925-11-11s4.925-11,11-11s11,4.925,11,11S38.075,27.969,32,27.969z"></path>
  <path fill="#b3404a" d="M58,17h-3v-1c0-1.654-1.346-3-3-3s-3,1.346-3,3v1h-1c0-8.822-7.178-16-16-16S16,8.178,16,17h-1v-1
		c0-1.654-1.346-3-3-3s-3,1.346-3,3v1H6c-2.757,0-5,2.243-5,5v36c0,2.757,2.243,5,5,5h52c2.757,0,5-2.243,5-5V22
		C63,19.243,60.757,17,58,17z M51,16c0-0.552,0.449-1,1-1s1,0.448,1,1v4c0,0.552-0.449,1-1,1s-1-0.448-1-1V16z M32,3
		c7.72,0,14,6.28,14,14s-6.28,14-14,14s-14-6.28-14-14S24.28,3,32,3z M41,30.218c0.1-0.069,0.193-0.148,0.292-0.218H45v4h-4V30.218z
		 M30,32.861C30.657,32.944,31.321,33,32,33s1.343-0.056,2-0.139V34h-4V32.861z M11,16c0-0.552,0.449-1,1-1s1,0.448,1,1v4
		c0,0.552-0.449,1-1,1s-1-0.448-1-1V16z M61,58c0,1.654-1.346,3-3,3H6c-1.654,0-3-1.346-3-3V22c0-1.654,1.346-3,3-3h3v1
		c0,1.654,1.346,3,3,3s3-1.346,3-3v-1h1.139c0.821,6.541,5.6,11.853,11.861,13.473V35c0,0.553,0.448,1,1,1h6c0.552,0,1-0.447,1-1
		v-2.527c1.046-0.271,2.048-0.642,3-1.108V35c0,0.553,0.448,1,1,1h6c0.552,0,1-0.447,1-1v-6c0-0.553-0.448-1-1-1h-2.411
		c2.292-2.413,3.837-5.533,4.272-9H49v1c0,1.654,1.346,3,3,3s3-1.346,3-3v-1h3c1.654,0,3,1.346,3,3V58z"></path>
  <path fill="#b3404a" d="M57 28h-6c-.552 0-1 .447-1 1v6c0 .553.448 1 1 1h6c.552 0 1-.447 1-1v-6C58 28.447 57.552 28 57 28zM56 34h-4v-4h4V34zM35 39h-6c-.552 0-1 .447-1 1v6c0 .553.448 1 1 1h6c.552 0 1-.447 1-1v-6C36 39.447 35.552 39 35 39zM34 45h-4v-4h4V45zM46 39h-6c-.552 0-1 .447-1 1v6c0 .553.448 1 1 1h6c.552 0 1-.447 1-1v-6C47 39.447 46.552 39 46 39zM45 45h-4v-4h4V45zM57 39h-6c-.552 0-1 .447-1 1v6c0 .553.448 1 1 1h6c.552 0 1-.447 1-1v-6C58 39.447 57.552 39 57 39zM56 45h-4v-4h4V45zM13 39H7c-.552 0-1 .447-1 1v6c0 .553.448 1 1 1h6c.552 0 1-.447 1-1v-6C14 39.447 13.552 39 13 39zM12 45H8v-4h4V45zM24 39h-6c-.552 0-1 .447-1 1v6c0 .553.448 1 1 1h6c.552 0 1-.447 1-1v-6C25 39.447 24.552 39 24 39zM23 45h-4v-4h4V45zM35 50h-6c-.552 0-1 .447-1 1v6c0 .553.448 1 1 1h6c.552 0 1-.447 1-1v-6C36 50.447 35.552 50 35 50zM34 56h-4v-4h4V56zM46 50h-6c-.552 0-1 .447-1 1v6c0 .553.448 1 1 1h6c.552 0 1-.447 1-1v-6C47 50.447 46.552 50 46 50zM45 56h-4v-4h4V56zM57 50h-6c-.552 0-1 .447-1 1v6c0 .553.448 1 1 1h6c.552 0 1-.447 1-1v-6C58 50.447 57.552 50 57 50zM56 56h-4v-4h4V56zM13 50H7c-.552 0-1 .447-1 1v6c0 .553.448 1 1 1h6c.552 0 1-.447 1-1v-6C14 50.447 13.552 50 13 50zM12 56H8v-4h4V56zM24 50h-6c-.552 0-1 .447-1 1v6c0 .553.448 1 1 1h6c.552 0 1-.447 1-1v-6C25 50.447 24.552 50 24 50zM23 56h-4v-4h4V56zM32 29c6.617 0 12-5.383 12-12S38.617 5 32 5s-12 5.383-12 12S25.383 29 32 29zM32 7c5.514 0 10 4.486 10 10s-4.486 10-10 10-10-4.486-10-10S26.486 7 32 7z"></path>
  <path fill="#b3404a" d="M32,19c0.35,0,0.675-0.098,0.961-0.257l3.524,2.115l1.029-1.715l-3.518-2.111
		C33.997,17.021,34,17.011,34,17c0-0.737-0.405-1.375-1-1.722V9h-2v6.278c-0.595,0.347-1,0.985-1,1.722C30,18.103,30.897,19,32,19z"></path>
</svg>
