<svg xmlns="http://www.w3.org/2000/svg" viewBox="0 0 512 512" id="generator">
  <path fill="#80b6ff" d="M27.5 121h457a20 20 0 0 1 20 20v250H7.5V141a20 20 0 0 1 20-20Z"></path>
  <rect width="180" height="180" x="284.5" y="81" fill="#faf7f5" rx="20" ry="20"></rect>
  <path fill="#ffcd69" d="m405.64 111-15.62 53.2h25.48L364.54 231l-3.01-41.71H335.5L354.95 111h50.69z"></path>
  <path fill="#8aa8bd" d="M26 391h460v40H26z"></path>
  <rect width="30" height="197" x="131" y="232.5" fill="#ff7d97" rx="15" ry="15" transform="rotate(90 146 331)"></rect>
  <rect width="120" height="197" x="86" y="127.5" fill="#faf7f5" rx="20" ry="20" transform="rotate(90 146 226)"></rect>
  <circle cx="429.5" cy="321" r="25" fill="#ffcd69"></circle>
  <circle cx="319.5" cy="321" r="25" fill="#ffcd69"></circle>
  <path fill="#648599" d="M504.5 398.5a7.5 7.5 0 0 0 7.5-7.5V141a27.54 27.54 0 0 0-27.5-27.5H472V101a27.54 27.54 0 0 0-27.5-27.5h-140A27.54 27.54 0 0 0 277 101v12.5H27.5A27.54 27.54 0 0 0 0 141v250a7.5 7.5 0 0 0 7.5 7.5h11v25h-11a7.5 7.5 0 0 0 0 15h497a7.5 7.5 0 0 0 0-15h-11v-25ZM292 101a12.52 12.52 0 0 1 12.5-12.5h140A12.52 12.52 0 0 1 457 101v140a12.52 12.52 0 0 1-12.5 12.5h-140A12.52 12.52 0 0 1 292 241ZM15 141a12.52 12.52 0 0 1 12.5-12.5H277V241a27.54 27.54 0 0 0 27.5 27.5h140A27.54 27.54 0 0 0 472 241V128.5h12.5A12.52 12.52 0 0 1 497 141v242.5H15Zm463.5 282.5h-445v-25h445Z"></path>
  <path fill="#648599" d="M335.5 196.79h19.05l2.51 34.75a7.5 7.5 0 0 0 13.44 4l51-66.8a7.5 7.5 0 0 0-6-12.05H400l12.79-43.59a7.5 7.5 0 0 0-7.19-9.61H355a7.51 7.51 0 0 0-7.28 5.69l-19.45 78.29a7.5 7.5 0 0 0 7.28 9.31zm25.32-78.29h34.8l-12.8 43.59a7.51 7.51 0 0 0 7.2 9.61h10.33l-29.76 39-1.59-21.95a7.5 7.5 0 0 0-7.48-7h-16.43zm-131.32 190h-167a22.5 22.5 0 0 0 0 45h167a22.5 22.5 0 0 0 0-45zm0 30h-167a7.5 7.5 0 0 1 0-15h167a7.5 7.5 0 0 1 0 15zm-5-180h-157A27.54 27.54 0 0 0 40 186v80a27.54 27.54 0 0 0 27.5 27.5h157A27.54 27.54 0 0 0 252 266v-80a27.54 27.54 0 0 0-27.5-27.5zM237 266a12.52 12.52 0 0 1-12.5 12.5h-157A12.52 12.52 0 0 1 55 266v-80a12.52 12.52 0 0 1 12.5-12.5h157A12.52 12.52 0 0 1 237 186zm192.5 22.5A32.5 32.5 0 1 0 462 321a32.54 32.54 0 0 0-32.5-32.5zm0 50A17.5 17.5 0 1 1 447 321a17.52 17.52 0 0 1-17.5 17.5zm-110-50A32.5 32.5 0 1 0 352 321a32.54 32.54 0 0 0-32.5-32.5zm0 50A17.5 17.5 0 1 1 337 321a17.52 17.52 0 0 1-17.5 17.5z"></path>
  <path fill="#648599" d="M86 193.5a7.5 7.5 0 0 0-7.5 7.5v50a7.5 7.5 0 0 0 15 0v-50a7.5 7.5 0 0 0-7.5-7.5zm40 0a7.5 7.5 0 0 0-7.5 7.5v50a7.5 7.5 0 0 0 15 0v-50a7.5 7.5 0 0 0-7.5-7.5zm40 0a7.5 7.5 0 0 0-7.5 7.5v50a7.5 7.5 0 0 0 15 0v-50a7.5 7.5 0 0 0-7.5-7.5zm40 0a7.5 7.5 0 0 0-7.5 7.5v50a7.5 7.5 0 0 0 15 0v-50a7.5 7.5 0 0 0-7.5-7.5z"></path>
</svg>
