<svg xmlns="http://www.w3.org/2000/svg" width="2100" height="2100" enable-background="new 0 0 2100 2100" viewBox="0 0 2100 2100" id="light-house">
  <path fill="#F6FA71" d="M1424.719,1896.891c-106.313-16.734-235.266-26.578-374.719-26.578s-268.406,9.844-374.719,26.578
	L787.5,1279.688h525L1424.719,1896.891z"></path>
  <polygon fill="#F6FA71" points="1443.75 1017.188 1443.75 1279.688 656.25 1279.688 656.25 1017.188 853.125 1017.188 853.125 1148.438 984.375 1148.438 984.375 1017.188 1115.625 1017.188 1115.625 1148.438 1246.875 1148.438 1246.875 1017.188"></polygon>
  <path fill="#F6FA71" d="M1443.75,557.813L1443.75,557.813c0,54.37-44.067,98.438-98.438,98.438H754.688
	c-54.37,0-98.438-44.067-98.438-98.438l0,0H1443.75z"></path>
  <polygon fill="#F6FA71" points="1312.5 656.25 1312.5 1017.188 1246.875 1017.188 1246.875 1148.438 1115.625 1148.438 1115.625 1017.188 984.375 1017.188 984.375 1148.438 853.125 1148.438 853.125 1017.188 787.5 1017.188 787.5 656.25"></polygon>
  <path fill="#F6FA71" d="M1312.5,557.813h-525c0-145.031,117.469-262.5,262.5-262.5S1312.5,412.781,1312.5,557.813z"></path>
  <rect width="525" height="229.688" x="787.5" y="656.25" fill="#017AFF"></rect>
  <path fill="#F6FA71" d="M1702.313,2001.563H397.688c21.328-43.313,126-81.047,277.594-104.672
	c106.313-16.734,235.266-26.578,374.719-26.578s268.406,9.844,374.719,26.578C1576.313,1920.516,1680.984,1958.25,1702.313,2001.563
	z"></path>
  <g>
    <path d="M1452.904 1868.508L1351.81 1312.5h91.94c18.112 0 32.813-14.7 32.813-32.813v-262.5c0-18.112-14.7-32.813-32.813-32.813h-98.438v-98.438V689.063c72.385 0 131.25-58.865 131.25-131.25 0-18.112-14.7-32.813-32.813-32.813h-100.373c-15.192-136.631-123.934-245.372-260.564-260.564V98.438c0-18.112-14.7-32.813-32.813-32.813s-32.813 14.7-32.813 32.813v165.999C880.557 279.628 771.815 388.369 756.623 525H656.25c-18.112 0-32.813 14.7-32.813 32.813 0 72.385 58.865 131.25 131.25 131.25v196.875 98.438H656.25c-18.112 0-32.813 14.7-32.813 32.813v262.5c0 18.112 14.7 32.813 32.813 32.813h91.94l-101.095 556.008c-159.075 27.07-253.346 66.807-278.841 118.552-5.021 10.172-4.43 22.214 1.575 31.828 6.004 9.614 16.504 15.487 27.857 15.487h1304.625c11.354 0 21.886-5.841 27.857-15.487 5.973-9.647 6.596-21.656 1.575-31.828C1706.25 1935.314 1611.947 1895.578 1452.904 1868.508zM1050 328.125c115.533 0 211.378 85.706 227.357 196.875H822.643C838.622 413.831 934.467 328.125 1050 328.125zM697.889 590.625H787.5h525 89.611c-11.354 19.589-32.583 32.813-56.799 32.813H1312.5h-525-32.813C730.439 623.438 709.242 610.214 697.889 590.625zM1115.625 984.375h-131.25c-18.112 0-32.813 14.7-32.813 32.813v98.438h-65.625v-98.438c0-18.112-14.7-32.813-32.813-32.813h-32.813V918.75h459.375v65.625h-32.813c-18.112 0-32.813 14.7-32.813 32.813v98.438h-65.625v-98.438C1148.438 999.075 1133.737 984.375 1115.625 984.375zM820.313 853.125V689.063h459.375v164.063H820.313zM689.063 1246.875V1050H787.5h32.813v98.438c0 18.112 14.7 32.813 32.813 32.813h131.25c18.112 0 32.813-14.7 32.813-32.813V1050h65.625v98.438c0 18.112 14.7 32.813 32.813 32.813h131.25c18.112 0 32.813-14.7 32.813-32.813V1050h32.813 98.438v196.875H1312.5h-525H689.063zM814.865 1312.5h470.236l99.159 545.409c-7.94-1.05-16.472-1.805-24.576-2.756-11.091-1.313-22.182-2.593-33.534-3.773-17.916-1.87-36.192-3.479-54.731-4.955-11.354-.919-22.542-1.87-34.093-2.625-20.409-1.345-41.212-2.362-62.146-3.248-10.106-.427-20.016-1.05-30.221-1.378-31.27-1.051-62.934-1.674-94.959-1.674s-63.689.623-94.992 1.641c-10.237.328-20.146.919-30.286 1.378-20.901.919-41.672 1.903-62.048 3.249-11.616.787-22.903 1.738-34.322 2.657-18.408 1.477-36.521 3.085-54.338 4.922-11.517 1.182-22.771 2.494-33.993 3.839-8.039.952-16.472 1.707-24.314 2.724L814.865 1312.5zM509.479 1968.75c39.244-13.617 94.664-27.563 170.921-39.44 108.74-17.128 236.545-26.185 369.6-26.185 35.339 0 70.186.722 104.508 2.002 94.959 3.478 185.26 11.615 265.158 24.215 76.223 11.879 131.611 25.824 170.887 39.441H509.479V1968.75zM393.75 787.5H525c18.112 0 32.813-14.7 32.813-32.813s-14.7-32.813-32.813-32.813H393.75c-18.112 0-32.813 14.7-32.813 32.813S375.638 787.5 393.75 787.5zM399.229 663.862l128.921 24.609c2.1.394 4.167.591 6.201.591 15.455 0 29.203-10.927 32.189-26.677 3.412-17.784-8.27-34.978-26.086-38.391l-128.921-24.609c-17.883-3.313-34.978 8.269-38.391 26.086C369.764 643.289 381.445 660.482 399.229 663.862zM528.183 820.903l-128.92 24.609c-17.784 3.412-29.466 20.573-26.086 38.391 3.019 15.717 16.767 26.677 32.188 26.677 2.035 0 4.102-.197 6.169-.591l128.921-24.609c17.784-3.413 29.465-20.573 26.086-38.391C563.161 829.205 546.065 817.589 528.183 820.903zM1575 721.81c-18.112 0-32.813 14.7-32.813 32.813s14.7 32.813 32.813 32.813h131.25c18.112 0 32.813-14.7 32.813-32.813s-14.7-32.813-32.813-32.813H1575zM1571.85 820.805c-17.915-3.248-34.978 8.302-38.391 26.086-3.412 17.784 8.27 34.979 26.086 38.391l128.921 24.609c2.067.394 4.134.591 6.169.591 15.454 0 29.203-10.927 32.188-26.677 3.413-17.784-8.269-34.979-26.086-38.391L1571.85 820.805zM1565.648 688.997c2.034 0 4.102-.197 6.169-.591l128.92-24.609c17.784-3.412 29.466-20.573 26.086-38.391-3.412-17.784-20.508-29.4-38.391-26.086l-128.92 24.609c-17.784 3.412-29.466 20.573-26.086 38.391C1536.445 678.037 1550.193 688.997 1565.648 688.997z"></path>
  </g>
</svg>
