<svg xmlns="http://www.w3.org/2000/svg" width="512" height="512" enable-background="new 0 0 512 512" viewBox="0 0 512 512" id="location">
  <path fill="#3D3F99" d="M256.005,91.49c-40.01,0-72.56,32.54-72.56,72.55c0,40.01,32.55,72.55,72.56,72.55
		c40,0,72.55-32.54,72.55-72.55C328.555,124.03,296.005,91.49,256.005,91.49z M256.005,221.59c-31.74,0-57.56-25.81-57.56-57.55
		c0-31.74,25.82-57.55,57.56-57.55c31.73,0,57.55,25.81,57.55,57.55C313.555,195.78,287.735,221.59,256.005,221.59z"></path>
  <path fill="#3D3F99" d="M479.335,362.11l-130.27-66.48c31.51-48.64,47.47-92.85,47.47-131.59c0-77.49-63.04-140.54-140.53-140.54
		c-77.5,0-140.54,63.05-140.54,140.54c0,38.75,15.96,82.96,47.47,131.6l-130.27,66.47c-2.51,1.28-4.09,3.86-4.09,6.68
		c0,2.82,1.58,5.4,4.09,6.68l219.94,112.21c1.07,0.55,2.24,0.82,3.41,0.82c1.17,0,2.34-0.27,3.41-0.82l219.91-112.21
		c2.51-1.28,4.09-3.86,4.09-6.68C483.425,365.97,481.845,363.39,479.335,362.11z M130.465,164.04
		c0-69.22,56.31-125.54,125.54-125.54c69.22,0,125.53,56.32,125.53,125.54c0,94.28-107.87,202.44-108.96,203.52
		c-4.4,4.37-10.29,6.77-16.57,6.77h-0.01c-6.29,0-12.17-2.4-16.57-6.77C238.335,366.48,130.465,258.42,130.465,164.04z
		 M256.015,472.58L52.575,368.79l118.77-60.6c0.35,0.51,0.7,1.02,1.05,1.54c27.87,39.98,55.31,67.34,56.46,68.48
		c7.23,7.17,16.87,11.12,27.14,11.12c5.14,0,10.12-0.99,14.72-2.87c4.6-1.88,8.81-4.66,12.42-8.25c1.16-1.14,28.6-28.51,56.47-68.49
		c0.35-0.52,0.7-1.02,1.05-1.54l118.77,60.61L256.015,472.58z"></path>
  <path fill="#DDF2F7" d="M256.005,38.5c-69.23,0-125.54,56.32-125.54,125.54c0,94.38,107.87,202.44,108.96,203.52
		c4.4,4.37,10.28,6.77,16.57,6.77h0.01c6.28,0,12.17-2.4,16.57-6.77c1.09-1.08,108.96-109.24,108.96-203.52
		C381.535,94.82,325.225,38.5,256.005,38.5z M256.005,236.59c-40.01,0-72.56-32.54-72.56-72.55c0-40.01,32.55-72.55,72.56-72.55
		c40,0,72.55,32.54,72.55,72.55C328.555,204.05,296.005,236.59,256.005,236.59z"></path>
  <path fill="#73B2E1" d="M313.555,164.04c0,31.74-25.82,57.55-57.55,57.55c-31.74,0-57.56-25.81-57.56-57.55
		c0-31.74,25.82-57.55,57.56-57.55C287.735,106.49,313.555,132.3,313.555,164.04z"></path>
  <path fill="#DDF2F7" d="M459.425,368.79l-203.41,103.79L52.575,368.79l118.77-60.6c0.35,0.51,0.7,1.02,1.05,1.54
		c27.87,39.98,55.31,67.34,56.46,68.48c7.23,7.17,16.87,11.12,27.14,11.12c5.14,0,10.12-0.99,14.72-2.87
		c4.6-1.88,8.81-4.66,12.42-8.25c1.16-1.14,28.6-28.51,56.47-68.49c0.35-0.52,0.7-1.02,1.05-1.54L459.425,368.79z"></path>
</svg>
